<?xml version="1.0" encoding="UTF-8" standalone="no"?>
<!DOCTYPE svg PUBLIC "-//W3C//DTD SVG 1.1//EN" "http://www.w3.org/Graphics/SVG/1.1/DTD/svg11.dtd">
<svg version="1.1" xmlns="http://www.w3.org/2000/svg" xmlns:xlink="http://www.w3.org/1999/xlink" preserveAspectRatio="xMidYMid meet" viewBox="0 0 100 100" width="100" height="100"><defs><path d="M0 56.95L0 43.08L100 43.05L100 56.92L0 56.95Z" id="e1vB8BYzSi"></path><path d="M60.94 11.58C60.94 18.13 55.56 23.44 48.94 23.44C42.31 23.44 36.94 18.13 36.94 11.58C36.94 5.04 42.31 -0.27 48.94 -0.27C55.56 -0.27 60.94 5.04 60.94 11.58Z" id="aBDPup3BD"></path><path d="M60.94 88.15C60.94 94.69 55.56 100 48.94 100C42.31 100 36.94 94.69 36.94 88.15C36.94 81.6 42.31 76.29 48.94 76.29C55.56 76.29 60.94 81.6 60.94 88.15Z" id="acGTQiA3f"></path></defs><g><g><g><use xlink:href="#e1vB8BYzSi" opacity="1" fill="#000000" fill-opacity="1"></use></g><g><use xlink:href="#aBDPup3BD" opacity="1" fill="#000000" fill-opacity="1"></use></g><g><use xlink:href="#acGTQiA3f" opacity="1" fill="#000000" fill-opacity="1"></use></g></g></g></svg>