<?xml version="1.0" encoding="UTF-8" standalone="no"?>
<!DOCTYPE svg PUBLIC "-//W3C//DTD SVG 1.1//EN" "http://www.w3.org/Graphics/SVG/1.1/DTD/svg11.dtd">
<svg version="1.1" xmlns="http://www.w3.org/2000/svg" xmlns:xlink="http://www.w3.org/1999/xlink" preserveAspectRatio="xMidYMid meet" viewBox="0 0 100 100" width="100" height="100"><defs><path d="M31.45 9.25C36.32 13.61 36.69 21.16 32.27 26.1C27.85 31.03 20.3 31.49 15.43 27.12C10.56 22.75 10.19 15.2 14.61 10.27C19.03 5.34 26.57 4.88 31.45 9.25Z" id="c2BSyMEFty"></path><path d="M84.57 74.44C89.44 78.81 89.81 86.36 85.39 91.29C80.97 96.22 73.43 96.68 68.55 92.32C63.68 87.95 63.31 80.4 67.73 75.47C72.15 70.53 79.7 70.08 84.57 74.44Z" id="b2Y6Xyot7p"></path><path d="M79.59 0.11L90.62 8.51L20.79 100.18L9.76 91.78L79.59 0.11Z" id="c42cpVFTKU"></path></defs><g><g><g><use xlink:href="#c2BSyMEFty" opacity="1" fill="#000000" fill-opacity="1"></use></g><g><use xlink:href="#b2Y6Xyot7p" opacity="1" fill="#000000" fill-opacity="1"></use></g><g><use xlink:href="#c42cpVFTKU" opacity="1" fill="#000000" fill-opacity="1"></use></g></g></g></svg>