<svg xmlns="http://www.w3.org/2000/svg" width="1em" height="1em" viewBox="0 0 16 16" fill="currentColor" xmlns:v="https://vecta.io/nano"><path fill-rule="evenodd" d="M9.405 1.05a1.47 1.47 0 0 0-2.81 0l-.1.34a1.464 1.464 0 0 1-2.105.872l-.3-.17c-1.283-.698-2.686.705-1.987 1.987l.17.31c.446.82.023 1.84-.872 2.105l-.34.1a1.47 1.47 0 0 0 0 2.81l.34.1a1.464 1.464 0 0 1 .872 2.105l-.17.3c-.698 1.283.705 2.686 1.987 1.987l.31-.17a1.464 1.464 0 0 1 2.105.872l.1.34a1.47 1.47 0 0 0 2.81 0l.1-.34a1.464 1.464 0 0 1 2.105-.872l.3.17c1.283.698 2.686-.705 1.987-1.987l-.17-.31a1.464 1.464 0 0 1 .872-2.105l.34-.1a1.47 1.47 0 0 0 0-2.81l-.34-.1a1.464 1.464 0 0 1-.872-2.105l.17-.3c.698-1.283-.705-2.686-1.987-1.987l-.31.17a1.464 1.464 0 0 1-2.105-.872l-.1-.34zM8 10.93a2.929 2.929 0 1 0 0-5.86 2.929 2.929 0 0 0 0 5.858z"/></svg>